

<svg xmlns="http://www.w3.org/2000/svg" version="1.1" width="302" height="156">
<path fill="#ffffff" d="M22.024,103.53c2.393-4.133,10.601-6.163,14.945-8.48c7.28-3.883,14.444-7.988,21.679-11.954 c12.602-6.908,25.183-13.849,37.765-20.793c4.112-2.27,8.234-4.544,12.475-6.568c2.415-1.152,5.397-2.46,3.038,1.028 c-4.877,7.21-12.308,13.342-19.133,18.619c-1.977,1.529-4.042,2.938-6.175,4.237c-1.005,0.612-2.051,1.15-3.114,1.653 c-2.346,1.109-0.719,0.958-0.487,0.809c3.412-2.204,6.95-4.214,10.545-6.1c3.147-1.651,6.423-3.134,9.832-4.155 c3.983-1.193,3.101,1.09,1.753,2.973c-4.063,5.674-11.335,9.542-17.516,12.311c-3.479,1.558-7.229,3.655-11.063,2.248 c-2.043-0.75-3.865-2.282-5.585-3.565c-4.423-3.299-9.965-7.1-11.356-12.774c-1.772-7.227,3.48-12.164,8.797-15.993 c15.612-11.245,35.208-17.764,53.019-24.591c15.559-5.964,31.293-11.445,46.988-17.037c6.16-2.195,12.231-4.567,18.223-7.195 c4.729-2.075,11.522-4.257,15.121-8.171c0.061-0.066-1.82-0.061-2.279,0.438c-3.354,3.648-9.768,5.562-14.153,7.522 c-4.947,2.211-9.985,4.208-15.08,6.052c-9.857,3.568-19.768,6.989-29.626,10.555C116.754,33.234,91.42,41.535,69.738,54.99 c-8.137,5.049-17.43,13.274-10.125,23.333c3.077,4.236,7.948,7.521,12.238,10.416c2.445,1.65,5.221,2.507,8.154,1.846 c9.202-2.075,18.452-7.401,25.265-13.844c0.787-0.744,4.655-4.371,3.199-5.643c-1.563-1.366-5.069,0.008-6.658,0.546 c-7.354,2.491-14.311,6.383-20.804,10.609c-0.932,0.606,0.999,0.294,1.264,0.206c6.114-2.032,11.411-6.218,16.309-10.275 c5.352-4.433,10.534-9.35,14.851-14.814c1.189-1.505,3.375-4.627-0.155-3.935c-4.583,0.899-8.937,3.647-12.996,5.813 C81.313,69.369,62.543,79.923,43.748,90.362c-4.149,2.304-8.275,4.67-12.54,6.758c-3.543,1.734-9.368,3.229-11.462,6.848 C19.626,104.172,21.703,104.084,22.024,103.53L22.024,103.53z"/>
<path fill="#ffffff" d="M113.446,84.456c2.099-2.067,4.327-4.014,6.5-6c2.232-2.04,4.275-4.277,6.302-6.519c1.209-1.338,2.434-3.276,3.961-4.276 c-0.663,0.107-1.327,0.215-1.99,0.322c0.746,0.929-12.858,15.541-8.198,16.094c2.213,0.264,4.718-1.797,6.345-2.96 c3.811-2.725,7.354-6.024,10.581-9.412c0.572-0.601-1.695-0.363-2.123,0.086c-2.388,2.508-4.955,4.833-7.609,7.054 c-1.372,1.147-2.804,2.216-4.289,3.212c-2.312,1.551-1.785-0.011-1.054-1.474c0.807-1.614,9.617-12.07,8.52-13.437 c-0.377-0.47-1.633,0.088-1.99,0.322c-3.332,2.181-5.948,6.471-8.732,9.303c-2.665,2.71-5.637,5.103-8.344,7.77 C110.744,85.112,113.005,84.89,113.446,84.456L113.446,84.456z"/>
<path fill="#ffffff" d="M136.142,61.255c0.635,0.086,1.34-0.01,1.935-0.238c0.364-0.14,0.845-0.342,1.001-0.737 c0.135-0.341-0.166-0.693-0.354-0.939c-0.363-0.477-2.579,0.288-2.178,0.814c0.104,0.138,0.186,0.28,0.229,0.447 c0.019,0.07,0.012,0.053-0.011,0.109c0.116-0.294,0.615-0.381,0.925-0.436c0.32-0.057,0.129-0.017,0.043-0.014 c0.282-0.008,0.107-0.001,0.042-0.005c-0.05-0.003-0.099-0.008-0.146-0.015c-0.527-0.071-1.208,0.145-1.64,0.439 C135.596,60.949,135.711,61.196,136.142,61.255L136.142,61.255z"/>
<path fill="#ffffff" d="M151.812,65.706c-5.431-2.791-8.167,1.655-10.48,5.883c-0.461,0.841-6.185,10.909-1.858,8.834 c4.897-2.349,8.976-8.678,12.144-12.792c3.245-4.215,6.096-8.718,8.601-13.408c0.971-1.818,3.33-5.182,3.108-7.414 c-0.041-0.113-0.118-0.19-0.232-0.232c-3.229-1.356-6.453,7.185-7.284,8.88c-2.238,4.572-3.699,9.078-4.821,14.032 c-0.61,2.697-1.884,5.687-1.896,8.482c-0.013,3.346,6.743-2.952,6.845-3.049c2.757-2.649,5.339-5.503,7.723-8.49 c0.958-1.2,3.588-4.071,2.787-5.854c-0.117-0.261-0.438-0.326-0.7-0.317c-2.256,0.078-3.329,2.295-4.381,4.019 c-0.95,1.559-5.144,8.153-3.595,9.684c2.471,2.442,9.317-5.972,10.41-7.127c6.174-6.527,12.858-14.181,16.121-22.676 c1.559-4.057-4.497,0.007-5.355,1.049c-5.081,6.17-9.164,13.893-12.282,21.221c-0.985,2.314-2.482,6.242-0.792,8.612 c1.874,2.626,5,1.784,7.6,0.812c4.014-1.501,7.191-4.855,9.3-8.472c0.436-0.747,2.805-5.452,0.696-5.83 c-3.934-0.706-9.021,6.211-11.181,8.667c-1.045,1.188-4.82,5.632-0.819,5.139c1.094-0.135,1.946-1.415,0.334-1.216 c0.079-0.01,1.438-2.44,1.64-2.706c1.154-1.514,2.5-2.892,3.841-4.236c1.167-1.171,2.4-2.275,3.678-3.324 c0.683-0.561,1.022-0.666,0.923-0.917c0.396,1.003-0.489,2.714-0.856,3.598c-1.566,3.768-4.865,6.66-8.453,8.411 c-5.067,2.473-5.41-2.802-4.712-5.684c1.098-4.525,3.739-8.833,6.004-12.84c1.979-3.501,4.109-6.938,6.457-10.204 c0.69-0.96,1.409-1.795,2.335-2.533c-1.763,1.404-2.857,5.2-4.097,7.286c-4.545,7.646-11.003,15.141-17.762,20.899 c-1.727,1.472-1.004,0.937-0.286-1.201c0.989-2.945,2.499-5.746,4.228-8.318c1.069-1.59-0.479-0.608-0.608-0.072 c-0.178,0.733-0.689,1.396-1.089,2.021c-1.189,1.86-2.685,3.543-4.132,5.202c-2.486,2.85-5.157,5.701-8.151,8.031 c0.772-0.601,0.669-0.714,1.014-2.146c0.626-2.603,1.293-5.193,1.884-7.805c1.148-5.072,2.992-9.689,5.417-14.293 c0.846-1.605,1.775-3.168,2.775-4.682c1.396-2.112-1.095,0.228-0.883-0.879c-0.181,0.943-0.713,1.892-1.098,2.757 c-4.608,10.375-11.926,20.893-20.508,28.419c-0.678,0.595,0.527,0.402,0.914-0.722c0.662-1.926,1.705-3.756,2.643-5.552 c1.298-2.484,3.147-7.86,7.04-5.86C150.597,67.12,152.737,66.181,151.812,65.706L151.812,65.706z"/>
<path fill="#ffffff" d="M198.544,61.688c-0.137-4.934-3.372-5.777-6.455-2.66c-3.814,3.858-7.642,9.249-10.184,14.059 c-0.034,0.091-0.015,0.167,0.062,0.228c1.107,0.623,2.862-0.546,3.735-1.113c4.265-2.767,7.838-6.361,10.581-10.639 c-0.766,0.124-1.531,0.248-2.297,0.371c-0.666,1.837-4.172,10.379-0.26,10.338c4.144-0.044,8.012-6.63,10.595-9.152 c1.051-0.705,0.853-0.809-0.596-0.311c0.302,0.83,0.315,1.971,0.51,2.843c0.216,0.976,0.691,2.974,1.769,3.455 c1.165,0.521,2.855,0.21,3.731-0.8c2.943-3.394,2.757-11.645-3.27-9.229c-3.453,1.384-8.386,13.872-3.007,14.099 c1.878,0.08,3.554-1.233,4.831-2.441c2.414-2.284,5.578-3.239,8.187-5.297c6.192-4.885,10.88-11.131,12.776-18.873 c1.435-5.854,1.783-12.148,2.499-18.127c0.308-2.568,0.169-6.108,1.336-8.487c-0.77,0.166-1.538,0.331-2.308,0.496 c0.246,0.481-0.767,2.68-0.91,3.16c-0.685,2.296-1.38,4.589-2.064,6.885c-1.534,5.142-2.992,10.293-4.254,15.509 c-1.345,5.557-2.823,11.081-4.172,16.637c-0.396,1.628-2.718,7.456-1.494,9.041c0.333,0.432,1.684-0.07,1.987-0.33 c1.219-1.042,1.626-3.829,2.241-5.252c2.611-6.039,6.921-10.63,12.606-13.893c8.197-4.703,13.726-0.301,12.518,8.17 c-0.478,3.344-3.049,6.857-6.272,8.043c0.44,0.138,0.88,0.276,1.319,0.414c2.525-1.661,5.067-3.14,8.094-3.636 c1.325-0.217,2.698-0.62,3.821-1.383c5.397-3.665,3.597-10.942,1.844-16.125c-0.214-0.633-2.512,0.048-2.318,0.621 c1.371,4.054,4.234,15.172-3.031,15.901c-3.769,0.378-7.092,2.403-10.21,4.455c-0.997,0.656,0.993,0.534,1.319,0.414 c8.051-2.963,12.511-18.922,1.365-20.071c-5.908-0.609-12.39,3.821-16.498,7.515c-2.762,2.484-4.803,5.755-6.44,9.053 c-0.598,1.203-1.382,4.941-2.158,5.606c0.662-0.11,1.325-0.22,1.987-0.33c-1.297-1.68,2.049-10.362,2.502-12.188 c1.299-5.223,2.66-10.43,3.916-15.664c1.218-5.073,2.783-10.072,4.278-15.067c0.392-1.307,3.009-6.802,2.343-8.107 c-0.326-0.64-2.063-0.002-2.308,0.496c-1.725,3.517-1.396,9.029-1.86,12.83c-0.962,7.884-1.521,15.805-5.66,22.764 c-2.45,4.119-6.068,7.356-9.786,10.292c-1.482,1.171-3.805,1.546-5.465,2.597c-0.505,0.319-3.176,4.271-4.288,2.619 c-0.99-1.472,0.205-4.521,0.646-6.099c0.366-1.313,0.968-2.529,1.594-3.73c2.128-4.086,3.375-0.084,3.534,1.736 c0.117,1.332-0.45,2.67-0.983,3.847c-0.821,1.813-2.184-3.116-2.197-3.178c-0.498-2.246-0.869-2.979-3.143-1.606 c-2.933,1.771-5.115,5.365-7.576,7.721c-2.34,2.24-1.066-2.526-0.791-3.739c0.37-1.63,0.898-3.242,1.469-4.813 c0.235-0.65-2.005-0.084-2.297,0.371c-2.473,3.857-5.649,7.042-9.402,9.658c-1.896,1.321-0.164,0.807,0.547-0.246 c0.748-1.108,1.489-2.22,2.238-3.326c1.67-2.464,3.388-4.895,5.231-7.231c0.249-0.315,1.943-2.715,2.438-2.392 c0.995,0.652,1.157,2.82,1.188,3.912C196.24,62.816,198.564,62.421,198.544,61.688L198.544,61.688z"/>
<path fill="#ffffff" d="M262.527,53.848c-3.84,0.931-6.021-1.277-8.993-3.011c-3.761-2.194-7.698-4.107-11.573-6.089 c-6.227-3.186-12.529-6.184-18.918-9.032c-7.649-3.41-15.399-6.612-23.279-9.456c-5.918-2.136-12.281-4.495-18.635-4.764 c-0.488-0.021-2.712,0.875-1.488,1.005c17.164,1.818,34.659,4.037,51.298,8.718c12.3,3.46,24.845,5.948,37.247,8.998 c5.59,1.374,11.144,2.899,16.588,4.771c4.036,1.388,12.479,3.608,14.209,8.084c0.813,2.102-5.32,3.753-6.544,4.581 c-4.002,2.705-0.925,5.582,2.167,6.982c1.423,0.645-4.439,3.234-5.411,3.585c-1.241,0.448-2.471,0.929-3.702,1.402 c-4.332,1.663-8.673,3.303-13.041,4.871c-22.98,8.243-46.501,12.477-70.373,17.036c-36.656,7-73.582,14.269-109.49,24.523 c-18.074,5.162-35.644,12.202-52.885,19.642c-13.146,5.672-27.599,11.063-39.463,19.242c-0.982,0.678,1.351,0.431,1.791,0.127 c5.745-3.961,12.385-6.832,18.664-9.816c10.559-5.019,21.295-9.671,32.114-14.097c19.767-8.087,39.823-14.589,60.545-19.703 c22.858-5.641,45.907-10.529,68.984-15.183c21.291-4.294,43.018-7.263,64.036-12.751c10.695-2.792,21.204-6.291,31.571-10.112 c5.893-2.172,12.506-4.022,18.095-6.887c2.943-1.509,0.54-2.775-1.386-3.666c-6.006-2.777,2.56-6.144,4.805-7.596 c6.021-3.893-5.487-8.258-8.184-9.434c-10.101-4.403-21.241-6.624-31.93-9.085c-10.804-2.488-21.495-5.359-32.269-7.947 c-15.036-3.61-30.582-5.663-45.948-7.29c-0.496,0.335-0.992,0.67-1.488,1.005c7.391,0.313,14.853,3.419,21.695,5.972 c8.771,3.271,17.374,7.011,25.871,10.93c7.6,3.505,15.078,7.31,22.438,11.291c1.915,1.036,4.293,3.438,6.325,4.049 c2.239,0.673,4.521,0.452,6.772-0.094C264.113,54.316,263.888,53.519,262.527,53.848L262.527,53.848z"/>
</svg>